<svg
  fill="none"
  xmlns="http://www.w3.org/2000/svg"
  viewBox="11.22 1.45 81.13 73.73"
>
  <path
    d="M54.231 31.634C59.8628 39.677 62.9906 48.1892 63.5951 55.3669C64.2058 62.6169 62.2418 67.9792 58.4246 70.652C54.6075 73.3248 48.8968 73.3364 42.2929 70.2829C35.7548 67.2599 28.8257 61.4093 23.194 53.3663C17.5622 45.3233 14.4344 36.8111 13.8298 29.6334C13.2191 22.3834 15.1832 17.0211 19.0003 14.3483C22.8175 11.6755 28.5282 11.6639 35.132 14.7174C41.6702 17.7404 48.5992 23.591 54.231 31.634Z"
    stroke="#FF6DB3"
    stroke-width="5"
  ></path>
  <path
    d="M80.3773 53.366C74.7455 61.409 67.8165 67.2596 61.2783 70.2826C54.6745 73.3361 48.9638 73.3245 45.1466 70.6517C41.3295 67.9789 39.3654 62.6166 39.9761 55.3666C40.5807 48.1889 43.7085 39.6767 49.3403 31.6337C54.972 23.5907 61.9011 17.7402 68.4392 14.7171C75.0431 11.6636 80.7538 11.6752 84.5709 14.348C88.3881 17.0208 90.3521 22.3831 89.7414 29.6331C89.1369 36.8109 86.0091 45.323 80.3773 53.366Z"
    stroke="#FF6DB3"
    stroke-width="5"
  ></path>
  <path
    d="M70.4423 38.3189C70.4423 48.1376 68.1221 56.9044 64.5003 63.1309C60.8421 69.42 56.1576 72.686 51.4977 72.686C46.8378 72.686 42.1533 69.42 38.4951 63.1309C34.8733 56.9044 32.5531 48.1376 32.5531 38.3189C32.5531 28.5002 34.8733 19.7334 38.4951 13.507C42.1533 7.21788 46.8378 3.95184 51.4977 3.95184C56.1576 3.95184 60.8421 7.21788 64.5003 13.507C68.1221 19.7334 70.4423 28.5002 70.4423 38.3189Z"
    stroke="#FF6DB3"
    stroke-width="5"
  ></path>
</svg>
